<?xml version="1.0" encoding="UTF-8" standalone="no"?>
<!-- Created with Inkscape (http://www.inkscape.org/) -->

<svg
   width="26.458334mm"
   height="26.458334mm"
   viewBox="0 0 26.458334 26.458334"
   version="1.1"
   id="svg13452"
   inkscape:version="1.2.2 (732a01da63, 2022-12-09)"
   sodipodi:docname="defaut_service_icon.svg"
   xml:space="preserve"
   xmlns:inkscape="http://www.inkscape.org/namespaces/inkscape"
   xmlns:sodipodi="http://sodipodi.sourceforge.net/DTD/sodipodi-0.dtd"
   xmlns="http://www.w3.org/2000/svg"
   xmlns:svg="http://www.w3.org/2000/svg"
   xmlns:rdf="http://www.w3.org/1999/02/22-rdf-syntax-ns#"
   xmlns:cc="http://creativecommons.org/ns#"
   xmlns:dc="http://purl.org/dc/elements/1.1/"><metadata
     id="metadata8"><rdf:RDF><cc:Work
         rdf:about=""><dc:format>image/svg+xml</dc:format><dc:type
           rdf:resource="http://purl.org/dc/dcmitype/StillImage" /></cc:Work></rdf:RDF></metadata><sodipodi:namedview
     id="namedview13454"
     pagecolor="#505050"
     bordercolor="#eeeeee"
     borderopacity="1"
     inkscape:showpageshadow="0"
     inkscape:pageopacity="0"
     inkscape:pagecheckerboard="0"
     inkscape:deskcolor="#505050"
     inkscape:document-units="mm"
     showgrid="false"
     inkscape:zoom="1.6819304"
     inkscape:cx="-27.646804"
     inkscape:cy="126.6402"
     inkscape:window-width="1920"
     inkscape:window-height="1027"
     inkscape:window-x="1912"
     inkscape:window-y="-8"
     inkscape:window-maximized="1"
     inkscape:current-layer="layer1" /><defs
     id="defs13449" /><g
     inkscape:label="Calque 1"
     inkscape:groupmode="layer"
     id="layer1"
     transform="translate(-93.499298,-103.52287)"><rect
       style="fill:#273773;fill-opacity:1;stroke-width:0.436515"
       id="rect1056-5"
       width="26.458334"
       height="26.458334"
       x="93.499298"
       y="103.52287"
       rx="5"
       ry="5"
       inkscape:export-filename="rect1056-5.png"
       inkscape:export-xdpi="109.97723"
       inkscape:export-ydpi="109.97723" /><path
       fill="#undefined"
       d="m 115.69819,112.06244 a 0.20183733,0.20183733 0 0 1 0,-0.0851 0.18059133,0.18059133 0 0 1 0,-0.0743 v -0.0956 l -0.0639,-0.1594 v 0 0 0 0 a 0.50990487,0.50990487 0 0 0 -0.0956,-0.11679 l -0.0956,-0.0851 v 0 h -0.053 v 0 l -4.18548,-2.64512 v 0 l -3.95175,-2.44333 a 0.90295654,0.90295654 0 0 0 -0.30795,-0.1594 h -0.0851 a 0.87108748,0.87108748 0 0 0 -0.28666,0 h -0.10639 a 1.200401,1.200401 0 0 0 -0.3505,0.13819 l -7.935408,4.9397 -0.0955,0.0743 -0.0956,0.0851 -0.10638,0.0743 -0.053,0.0639 v 0 l -0.0639,0.1594 v 0.0956 0.0639 a 0.73298826,0.73298826 0 0 0 0,0.21239 v 9.27389 a 1.0623018,1.0623018 0 0 0 0.49926,0.90298 l 7.967248,4.92904 v 0 0 l 0.1594,0.0639 h 0.0851 a 0.91357954,0.91357954 0 0 0 0.55239,0 h 0.0851 l 0.15939,-0.0639 v 0 0 l 7.90352,-4.85469 a 1.0623018,1.0623018 0 0 0 0.49928,-0.90297 v -9.27389 c 0,0 0.0201,-0.0743 0.0201,-0.1168 z m -9.01893,-3.55873 1.89091,1.16852 -5.93827,3.67557 -1.90155,-1.16851 z m -1.06229,15.93453 -5.842668,-3.56934 v -6.78811 l 5.842668,3.61186 z m 1.06229,-8.61527 -2.02899,-1.22164 5.93827,-3.68617 2.03962,1.26413 z m 6.90495,5.01406 -5.84266,3.63309 v -6.77747 l 5.84266,-3.61186 z"
       id="path1876"
       style="fill:#8bd7bc;fill-opacity:1;stroke-width:1.0623" /></g></svg>
