<?xml version="1.0" encoding="UTF-8" standalone="no"?>
<!-- Created with Inkscape (http://www.inkscape.org/) -->

<svg
   xmlns:dc="http://purl.org/dc/elements/1.1/"
   xmlns:cc="http://creativecommons.org/ns#"
   xmlns:rdf="http://www.w3.org/1999/02/22-rdf-syntax-ns#"
   xmlns:svg="http://www.w3.org/2000/svg"
   xmlns="http://www.w3.org/2000/svg"
   xmlns:sodipodi="http://sodipodi.sourceforge.net/DTD/sodipodi-0.dtd"
   xmlns:inkscape="http://www.inkscape.org/namespaces/inkscape"
   width="26.458334mm"
   height="26.458334mm"
   viewBox="0 0 26.458334 26.458334"
   version="1.1"
   id="svg13452"
   inkscape:version="0.92.5 (2060ec1f9f, 2020-04-08)"
   sodipodi:docname="favicon.svg">
  <metadata
     id="metadata8">
    <rdf:RDF>
      <cc:Work
         rdf:about="">
        <dc:format>image/svg+xml</dc:format>
        <dc:type
           rdf:resource="http://purl.org/dc/dcmitype/StillImage" />
      </cc:Work>
    </rdf:RDF>
  </metadata>
  <sodipodi:namedview
     id="namedview13454"
     pagecolor="#505050"
     bordercolor="#eeeeee"
     borderopacity="1"
     inkscape:showpageshadow="0"
     inkscape:pageopacity="0"
     inkscape:pagecheckerboard="0"
     inkscape:deskcolor="#505050"
     inkscape:document-units="mm"
     showgrid="false"
     inkscape:zoom="1.6819304"
     inkscape:cx="-27.944081"
     inkscape:cy="126.64019"
     inkscape:window-width="1920"
     inkscape:window-height="995"
     inkscape:window-x="1920"
     inkscape:window-y="24"
     inkscape:window-maximized="1"
     inkscape:current-layer="layer1" />
  <defs
     id="defs13449" />
  <g
     inkscape:label="Calque 1"
     inkscape:groupmode="layer"
     id="layer1"
     transform="translate(-93.499298,-103.52287)">
    <rect
       style="fill:#273773;fill-opacity:1;stroke-width:0.436515"
       id="rect1056-5"
       width="26.458334"
       height="26.458334"
       x="93.499298"
       y="103.52287"
       rx="5"
       ry="5"
       inkscape:export-filename="rect1056-5.png"
       inkscape:export-xdpi="109.97723"
       inkscape:export-ydpi="109.97723" />
    <path
       d="m 102.1334,106.09222 q 0,5.3206 0,21.31963 -0.55811,0 -2.26963,0 0,-5.32061 0,-21.31963 0.55811,0 2.26963,0 z m 11.45976,0 q 0,0.5581 0,2.26963 0,4.57646 -3.46025,7.25537 -3.42305,2.6417 -7.99951,2.6417 0,-0.74414 0,-2.26963 3.83232,0 6.47402,-2.30684 2.67891,-2.26963 2.67891,-5.3206 0,-0.74414 0,-2.26963 0.59531,0 2.30683,0 z m -6.8833,9.11572 q 3.05098,0 4.57647,1.93477 1.52549,1.89756 1.52549,4.16718 0,2.04639 0,6.10196 -0.55811,0 -2.26963,0 0,-1.33946 0,-5.32061 0,-2.30683 -1.52549,-3.83232 -1.52549,-1.52549 -3.83232,-1.52549 0.52089,-0.48369 1.52548,-1.52549 z"
       style="font-size:38.1px;line-height:1.25;font-family:'Last Dream';-inkscape-font-specification:'Last Dream';letter-spacing:0px;word-spacing:0px;fill:#ffffff;stroke-width:0.264583"
       id="path13337" />
  </g>
</svg>
