<?xml version="1.0" encoding="UTF-8" standalone="no"?>
<svg
   width="16"
   height="16"
   fill="currentColor"
   class="bi bi-magic"
   viewBox="0 0 16 16"
   version="1.1"
   id="svg4"
   sodipodi:docname="envelope-plus.svg"
   inkscape:export-filename="/media/veracrypt1/dev/kontojkreado/docs/images/magic.png"
   inkscape:export-xdpi="192"
   inkscape:export-ydpi="192"
   inkscape:version="1.1.2 (0a00cf5339, 2022-02-04)"
   xmlns:inkscape="http://www.inkscape.org/namespaces/inkscape"
   xmlns:sodipodi="http://sodipodi.sourceforge.net/DTD/sodipodi-0.dtd"
   xmlns="http://www.w3.org/2000/svg"
   xmlns:svg="http://www.w3.org/2000/svg">
  <defs
     id="defs8" />
  <sodipodi:namedview
     id="namedview6"
     pagecolor="#ffffff"
     bordercolor="#666666"
     borderopacity="1.0"
     inkscape:pageshadow="2"
     inkscape:pageopacity="0.0"
     inkscape:pagecheckerboard="0"
     showgrid="false"
     inkscape:zoom="6.109375"
     inkscape:cx="25.616368"
     inkscape:cy="-24.55243"
     inkscape:window-width="1920"
     inkscape:window-height="1011"
     inkscape:window-x="0"
     inkscape:window-y="0"
     inkscape:window-maximized="1"
     inkscape:current-layer="svg4" />
  <rect
     style="fill:#8bd7bc;fill-opacity:1;stroke:#ffffff;stroke-width:0;stroke-miterlimit:4;stroke-dasharray:none"
     id="rect847"
     width="15.999999"
     height="15.999999"
     x="4.7683716e-07"
     y="4.7683716e-07"
     rx="3"
     ry="3" />
  <g
     style="fill:currentColor"
     id="g1240"
     transform="matrix(0.875,0,0,0.875,1,0.125)">
    <path
       d="M 2,2 A 2,2 0 0 0 0,4 v 8.01 A 2,2 0 0 0 2,14 h 5.5 a 0.5,0.5 0 0 0 0,-1 H 2 A 1,1 0 0 1 1.034,12.259 L 6.674,8.788 8,9.583 15,5.383 V 8.5 a 0.5,0.5 0 0 0 1,0 V 4 A 2,2 0 0 0 14,2 Z M 5.708,8.208 1,11.105 V 5.383 Z M 1,4.217 V 4 A 1,1 0 0 1 2,3 h 12 a 1,1 0 0 1 1,1 v 0.217 l -7,4.2 z"
       id="path1228" />
    <path
       d="m 16,12.5 a 3.5,3.5 0 1 1 -7,0 3.5,3.5 0 0 1 7,0 m -3.5,-2 A 0.5,0.5 0 0 0 12,11 v 1 h -1 a 0.5,0.5 0 0 0 0,1 h 1 v 1 a 0.5,0.5 0 0 0 1,0 v -1 h 1 a 0.5,0.5 0 0 0 0,-1 h -1 v -1 a 0.5,0.5 0 0 0 -0.5,-0.5"
       id="path1230" />
  </g>
</svg>
