<?xml version="1.0" encoding="UTF-8" standalone="no"?>
<svg
   width="16"
   height="16"
   fill="currentColor"
   class="bi bi-sliders"
   viewBox="0 0 16 16"
   version="1.1"
   id="svg4"
   sodipodi:docname="patch-check-fill.svg"
   inkscape:version="1.1.2 (0a00cf5339, 2022-02-04)"
   inkscape:export-filename="/media/veracrypt1/dev/kontojkreado/docs/images/robot.png"
   inkscape:export-xdpi="144"
   inkscape:export-ydpi="144"
   xmlns:inkscape="http://www.inkscape.org/namespaces/inkscape"
   xmlns:sodipodi="http://sodipodi.sourceforge.net/DTD/sodipodi-0.dtd"
   xmlns="http://www.w3.org/2000/svg"
   xmlns:svg="http://www.w3.org/2000/svg">
  <defs
     id="defs8" />
  <sodipodi:namedview
     id="namedview6"
     pagecolor="#ffffff"
     bordercolor="#666666"
     borderopacity="1.0"
     inkscape:pageshadow="2"
     inkscape:pageopacity="0.0"
     inkscape:pagecheckerboard="0"
     showgrid="false"
     inkscape:zoom="4.3199805"
     inkscape:cx="-38.773323"
     inkscape:cy="0"
     inkscape:window-width="1920"
     inkscape:window-height="1011"
     inkscape:window-x="0"
     inkscape:window-y="0"
     inkscape:window-maximized="1"
     inkscape:current-layer="svg4" />
  <rect
     style="fill:#273773;fill-opacity:1;stroke:#ffffff;stroke-width:0;stroke-miterlimit:4;stroke-dasharray:none"
     id="rect847"
     width="15.999999"
     height="15.999999"
     x="4.7683716e-07"
     y="4.7683716e-07"
     rx="3"
     ry="3" />
  <g
     style="fill:#ffffff"
     id="g1038"
     transform="matrix(0.81258173,0,0,0.81258173,1.4993462,1.4997525)">
    <path
       d="m 10.067,0.87 a 2.89,2.89 0 0 0 -4.134,0 L 5.311,1.508 4.421,1.497 A 2.89,2.89 0 0 0 1.497,4.421 l 0.01,0.89 -0.636,0.622 a 2.89,2.89 0 0 0 0,4.134 l 0.637,0.622 -0.011,0.89 a 2.89,2.89 0 0 0 2.924,2.924 l 0.89,-0.01 0.622,0.636 a 2.89,2.89 0 0 0 4.134,0 l 0.622,-0.637 0.89,0.011 a 2.89,2.89 0 0 0 2.924,-2.924 l -0.01,-0.89 0.636,-0.622 a 2.89,2.89 0 0 0 0,-4.134 L 14.492,5.311 14.503,4.421 A 2.89,2.89 0 0 0 11.579,1.497 l -0.89,0.01 z m 0.287,5.984 -3,3 a 0.5,0.5 0 0 1 -0.708,0 l -1.5,-1.5 A 0.5006316,0.5006316 0 1 1 5.854,7.646 L 7,8.793 9.646,6.146 a 0.5006316,0.5006316 0 0 1 0.708,0.708"
       id="path1029"
       style="fill:#ffffff" />
  </g>
</svg>
