<?xml version="1.0" encoding="UTF-8" standalone="no"?>
<svg
   width="16"
   height="16"
   fill="currentColor"
   class="bi bi-magic"
   viewBox="0 0 16 16"
   version="1.1"
   id="svg4"
   sodipodi:docname="person-plus-fill.svg"
   inkscape:export-filename="/media/veracrypt1/dev/kontojkreado/docs/images/person-fill.png"
   inkscape:export-xdpi="144"
   inkscape:export-ydpi="144"
   inkscape:version="1.1.2 (0a00cf5339, 2022-02-04)"
   xmlns:inkscape="http://www.inkscape.org/namespaces/inkscape"
   xmlns:sodipodi="http://sodipodi.sourceforge.net/DTD/sodipodi-0.dtd"
   xmlns="http://www.w3.org/2000/svg"
   xmlns:svg="http://www.w3.org/2000/svg">
  <defs
     id="defs8" />
  <sodipodi:namedview
     id="namedview6"
     pagecolor="#ffffff"
     bordercolor="#666666"
     borderopacity="1.0"
     inkscape:pageshadow="2"
     inkscape:pageopacity="0.0"
     inkscape:pagecheckerboard="0"
     showgrid="false"
     inkscape:zoom="6.109375"
     inkscape:cx="25.616368"
     inkscape:cy="-24.55243"
     inkscape:window-width="1920"
     inkscape:window-height="1011"
     inkscape:window-x="0"
     inkscape:window-y="0"
     inkscape:window-maximized="1"
     inkscape:current-layer="svg4" />
  <rect
     style="fill:#8bd7bc;fill-opacity:1;stroke:#ffffff;stroke-width:0;stroke-miterlimit:4;stroke-dasharray:none"
     id="rect847"
     width="15.999999"
     height="15.999999"
     x="4.7683716e-07"
     y="4.7683716e-07"
     rx="3"
     ry="3" />
  <g
     style="fill:currentColor"
     id="g1678"
     transform="matrix(0.875,0,0,0.875,1,1)">
    <path
       d="m 1,14 c 0,0 -1,0 -1,-1 0,-1 1,-4 6,-4 5,0 6,3 6,4 0,1 -1,1 -1,1 z M 6,8 A 3,3 0 1 0 6,2 3,3 0 0 0 6,8"
       id="path1666" />
    <path
       fill-rule="evenodd"
       d="M 13.5,5 A 0.5,0.5 0 0 1 14,5.5 V 7 h 1.5 a 0.5,0.5 0 0 1 0,1 H 14 v 1.5 a 0.5,0.5 0 0 1 -1,0 V 8 h -1.5 a 0.5,0.5 0 0 1 0,-1 H 13 V 5.5 A 0.5,0.5 0 0 1 13.5,5"
       id="path1668" />
  </g>
</svg>
