<?xml version="1.0" encoding="UTF-8" standalone="no"?>
<svg
   width="16"
   height="16"
   fill="currentColor"
   class="bi bi-sliders"
   viewBox="0 0 16 16"
   version="1.1"
   id="svg4"
   sodipodi:docname="robot.svg"
   inkscape:version="1.1.2 (0a00cf5339, 2022-02-04)"
   inkscape:export-filename="/media/veracrypt1/dev/kontojkreado/docs/images/sliders.png"
   inkscape:export-xdpi="144"
   inkscape:export-ydpi="144"
   xmlns:inkscape="http://www.inkscape.org/namespaces/inkscape"
   xmlns:sodipodi="http://sodipodi.sourceforge.net/DTD/sodipodi-0.dtd"
   xmlns="http://www.w3.org/2000/svg"
   xmlns:svg="http://www.w3.org/2000/svg">
  <defs
     id="defs8" />
  <sodipodi:namedview
     id="namedview6"
     pagecolor="#ffffff"
     bordercolor="#666666"
     borderopacity="1.0"
     inkscape:pageshadow="2"
     inkscape:pageopacity="0.0"
     inkscape:pagecheckerboard="0"
     showgrid="false"
     inkscape:zoom="4.3199805"
     inkscape:cx="-38.773323"
     inkscape:cy="0"
     inkscape:window-width="1920"
     inkscape:window-height="1011"
     inkscape:window-x="0"
     inkscape:window-y="0"
     inkscape:window-maximized="1"
     inkscape:current-layer="svg4" />
  <rect
     style="fill:#273773;fill-opacity:1;stroke:#ffffff;stroke-width:0;stroke-miterlimit:4;stroke-dasharray:none"
     id="rect847"
     width="15.999999"
     height="15.999999"
     x="4.7683716e-07"
     y="4.7683716e-07"
     rx="3"
     ry="3" />
  <g
     style="fill:#ffffff"
     id="g886"
     transform="matrix(0.875,0,0,0.875,1,1.4375111)">
    <path
       d="M 6,12.5 A 0.5,0.5 0 0 1 6.5,12 h 3 a 0.5,0.5 0 0 1 0,1 h -3 A 0.5,0.5 0 0 1 6,12.5 M 3,8.062 C 3,6.76 4.235,5.765 5.53,5.886 a 26.6,26.6 0 0 0 4.94,0 C 11.765,5.765 13,6.76 13,8.062 v 1.157 a 0.93,0.93 0 0 1 -0.765,0.935 C 11.39,10.301 9.895,10.5 8,10.5 6.105,10.5 4.61,10.3 3.765,10.154 A 0.93,0.93 0 0 1 3,9.219 Z M 7.542,7.235 A 0.25,0.25 0 0 0 7.325,7.303 l -0.92,0.9 A 25,25 0 0 1 4.534,8.02 0.25,0.25 0 0 0 4.466,8.515 c 0.55,0.076 1.232,0.149 2.02,0.193 A 0.25,0.25 0 0 0 6.675,8.637 L 7.429,7.901 8.276,9.611 A 0.25,0.25 0 0 0 8.68,9.673 L 9.612,8.703 A 25,25 0 0 0 11.534,8.515 0.25,0.25 0 0 0 11.466,8.02 C 10.928,8.094 10.259,8.165 9.486,8.209 A 0.25,0.25 0 0 0 9.32,8.285 L 8.566,9.07 7.724,7.37 A 0.25,0.25 0 0 0 7.542,7.235"
       id="path874"
       style="fill:#ffffff" />
    <path
       d="m 8.5,1.866 a 1,1 0 1 0 -1,0 V 3 h -2 A 4.5,4.5 0 0 0 1,7.5 V 8 A 1,1 0 0 0 0,9 v 2 a 1,1 0 0 0 1,1 v 1 a 2,2 0 0 0 2,2 h 10 a 2,2 0 0 0 2,-2 v -1 a 1,1 0 0 0 1,-1 V 9 A 1,1 0 0 0 15,8 V 7.5 A 4.5,4.5 0 0 0 10.5,3 h -2 z M 14,7.5 V 13 a 1,1 0 0 1 -1,1 H 3 A 1,1 0 0 1 2,13 V 7.5 A 3.5,3.5 0 0 1 5.5,4 h 5 A 3.5,3.5 0 0 1 14,7.5"
       id="path876"
       style="fill:#ffffff" />
  </g>
</svg>
