<?xml version="1.0" encoding="UTF-8" standalone="no"?>
<svg
   width="16"
   height="16"
   fill="currentColor"
   class="bi bi-sliders"
   viewBox="0 0 16 16"
   version="1.1"
   id="svg4"
   sodipodi:docname="sliders.svg"
   inkscape:version="1.1.2 (0a00cf5339, 2022-02-04)"
   xmlns:inkscape="http://www.inkscape.org/namespaces/inkscape"
   xmlns:sodipodi="http://sodipodi.sourceforge.net/DTD/sodipodi-0.dtd"
   xmlns="http://www.w3.org/2000/svg"
   xmlns:svg="http://www.w3.org/2000/svg">
  <defs
     id="defs8" />
  <sodipodi:namedview
     id="namedview6"
     pagecolor="#ffffff"
     bordercolor="#666666"
     borderopacity="1.0"
     inkscape:pageshadow="2"
     inkscape:pageopacity="0.0"
     inkscape:pagecheckerboard="0"
     showgrid="false"
     inkscape:zoom="4.3199805"
     inkscape:cx="-38.773323"
     inkscape:cy="0"
     inkscape:window-width="1920"
     inkscape:window-height="1011"
     inkscape:window-x="0"
     inkscape:window-y="0"
     inkscape:window-maximized="1"
     inkscape:current-layer="svg4" />
  <rect
     style="fill:#273773;fill-opacity:1;stroke:#ffffff;stroke-width:0;stroke-miterlimit:4;stroke-dasharray:none"
     id="rect847"
     width="15.999999"
     height="15.999999"
     x="4.7683716e-07"
     y="4.7683716e-07"
     rx="3"
     ry="3" />
  <path
     fill-rule="evenodd"
     d="m 10.84375,2.7187502 a 1.21875,1.21875 0 1 0 0,2.4374999 1.21875,1.21875 0 0 0 0,-2.4374999 m -1.990625,0.8125 a 2.03125,2.03125 0 0 1 3.98125,0 H 14.5 v 0.8124999 h -1.665625 a 2.03125,2.03125 0 0 1 -3.98125,0 H 1.5 V 3.5312502 Z M 5.15625,6.78125 a 1.21875,1.21875 0 1 0 0,2.4375002 1.21875,1.21875 0 0 0 0,-2.4375001 m -1.990625,0.8125 a 2.03125,2.03125 0 0 1 3.98125,0 H 14.5 V 8.4062502 H 7.146875 a 2.03125,2.03125 0 0 1 -3.98125,0 H 1.5 V 7.59375 Z M 10.84375,10.84375 a 1.21875,1.21875 0 1 0 0,2.4375 1.21875,1.21875 0 0 0 0,-2.4375 m -1.990625,0.8125 a 2.03125,2.03125 0 0 1 3.98125,0 H 14.5 v 0.8125 h -1.665625 a 2.03125,2.03125 0 0 1 -3.98125,0 H 1.5 v -0.8125 z"
     id="path2"
     style="fill:#ffffff;stroke-width:0.8125" />
</svg>
